<mxfile host="Electron" modified="2023-11-16T07:03:00.657Z" agent="Mozilla/5.0 (Windows NT 10.0; Win64; x64) AppleWebKit/537.36 (KHTML, like Gecko) draw.io/21.6.8 Chrome/114.0.5735.289 Electron/25.5.0 Safari/537.36" etag="5q9p-NQYf2Lf84KFlVbw" version="21.6.8" type="device">
  <diagram id="W1BwmWzLlPHiCO6JRswT" name="第 1 页">
    <mxGraphModel dx="989" dy="1782" grid="1" gridSize="10" guides="1" tooltips="1" connect="1" arrows="1" fold="1" page="1" pageScale="1" pageWidth="1920" pageHeight="1200" math="0" shadow="0">
      <root>
        <mxCell id="0" />
        <mxCell id="1" parent="0" />
        <mxCell id="_riWhO9QnEtBDxnZY9bL-2" style="edgeStyle=orthogonalEdgeStyle;rounded=1;orthogonalLoop=1;jettySize=auto;html=1;exitX=0.25;exitY=0;exitDx=0;exitDy=0;entryX=0.25;entryY=1;entryDx=0;entryDy=0;" edge="1" parent="1" source="LBKLZH5YYMk8-vjrodIQ-2" target="_riWhO9QnEtBDxnZY9bL-1">
          <mxGeometry relative="1" as="geometry" />
        </mxCell>
        <mxCell id="_riWhO9QnEtBDxnZY9bL-4" value="jump" style="edgeLabel;html=1;align=center;verticalAlign=middle;resizable=0;points=[];" vertex="1" connectable="0" parent="_riWhO9QnEtBDxnZY9bL-2">
          <mxGeometry x="-0.0793" relative="1" as="geometry">
            <mxPoint as="offset" />
          </mxGeometry>
        </mxCell>
        <mxCell id="_riWhO9QnEtBDxnZY9bL-15" value="!ground" style="edgeStyle=orthogonalEdgeStyle;rounded=1;orthogonalLoop=1;jettySize=auto;html=1;exitX=1;exitY=0.25;exitDx=0;exitDy=0;entryX=0;entryY=0.25;entryDx=0;entryDy=0;" edge="1" parent="1" source="LBKLZH5YYMk8-vjrodIQ-2" target="_riWhO9QnEtBDxnZY9bL-7">
          <mxGeometry relative="1" as="geometry" />
        </mxCell>
        <mxCell id="LBKLZH5YYMk8-vjrodIQ-2" value="Move State" style="rounded=1;whiteSpace=wrap;html=1;fillColor=#dae8fc;fontStyle=1;verticalAlign=middle;strokeColor=#6c8ebf;" parent="1" vertex="1">
          <mxGeometry x="690" y="-530" width="120" height="40" as="geometry" />
        </mxCell>
        <mxCell id="_riWhO9QnEtBDxnZY9bL-3" style="edgeStyle=orthogonalEdgeStyle;rounded=0;orthogonalLoop=1;jettySize=auto;html=1;exitX=0.75;exitY=1;exitDx=0;exitDy=0;entryX=0.75;entryY=0;entryDx=0;entryDy=0;" edge="1" parent="1" source="_riWhO9QnEtBDxnZY9bL-1" target="LBKLZH5YYMk8-vjrodIQ-2">
          <mxGeometry relative="1" as="geometry" />
        </mxCell>
        <mxCell id="_riWhO9QnEtBDxnZY9bL-5" value="ground" style="edgeLabel;html=1;align=center;verticalAlign=middle;resizable=0;points=[];" vertex="1" connectable="0" parent="_riWhO9QnEtBDxnZY9bL-3">
          <mxGeometry x="0.0793" y="3" relative="1" as="geometry">
            <mxPoint y="25" as="offset" />
          </mxGeometry>
        </mxCell>
        <mxCell id="_riWhO9QnEtBDxnZY9bL-14" style="edgeStyle=orthogonalEdgeStyle;rounded=1;orthogonalLoop=1;jettySize=auto;html=1;exitX=1;exitY=0.5;exitDx=0;exitDy=0;entryX=0.5;entryY=0;entryDx=0;entryDy=0;" edge="1" parent="1" source="_riWhO9QnEtBDxnZY9bL-1" target="_riWhO9QnEtBDxnZY9bL-7">
          <mxGeometry relative="1" as="geometry" />
        </mxCell>
        <mxCell id="_riWhO9QnEtBDxnZY9bL-1" value="Jump State" style="rounded=1;whiteSpace=wrap;html=1;fillColor=#dae8fc;fontStyle=1;verticalAlign=middle;strokeColor=#6c8ebf;" vertex="1" parent="1">
          <mxGeometry x="690" y="-690" width="120" height="40" as="geometry" />
        </mxCell>
        <mxCell id="_riWhO9QnEtBDxnZY9bL-19" value="ground" style="edgeStyle=orthogonalEdgeStyle;rounded=1;orthogonalLoop=1;jettySize=auto;html=1;exitX=0;exitY=0.75;exitDx=0;exitDy=0;entryX=1;entryY=0.75;entryDx=0;entryDy=0;" edge="1" parent="1" source="_riWhO9QnEtBDxnZY9bL-7" target="LBKLZH5YYMk8-vjrodIQ-2">
          <mxGeometry relative="1" as="geometry" />
        </mxCell>
        <mxCell id="_riWhO9QnEtBDxnZY9bL-7" value="Fall State" style="rounded=1;whiteSpace=wrap;html=1;fillColor=#dae8fc;fontStyle=1;verticalAlign=middle;strokeColor=#6c8ebf;" vertex="1" parent="1">
          <mxGeometry x="910" y="-530" width="120" height="40" as="geometry" />
        </mxCell>
      </root>
    </mxGraphModel>
  </diagram>
</mxfile>
